 http://img87.imageshack.us/img87/889/lordallmencantbedogs201.jpg

Country.......: USA
Genre.........: Comedy
Date release..: 2011 [World]
Director......: T.J. Hemphill
Writers.......: T.J. Hemphill
Duration......: 114 min.
More..........: http://www.imdb.com/title/tt1734578
Trailer.......: http://www.imdb.com/video/screenplay/vi820944153
Trailer.......:

Pilot :
The protagonists of the film are Lisa and Tim Johnsons, whose fortunes are closely linked with the four ghosts living in their family home. It is a story of temptation, greed and redemption, combined with a substantial dose of humor.

Cats :
Vivica A. Fox   	 ...  	Lisa
Christian Keyes 	... 	Tim
Elise Neal 	... 	Diane
Johnny Gill 	... 	Reverend
Laila Odom 	... 	Erotica
Trisha Mann 	... 	Ruby
Ralph Cole Jr. 	... 	Eugene
Kareem J. Grimes 	... 	Leroy
Keith Burke 	... 	Strife
Shoneji Loraine 	... 	Mamie
Tony Grant 	... 	Todd
Todd Anthony 	... 	Restaurant Couple
Amber Hemphill 	... 	Sally 

Data Technical :
!!! SAMPLE !!!
Audio.....: English
Subtitles.: None
[ CD1 ]
Format                           : AVI
Format/Info                      : Audio Video Interleave
File size                        : 699 MiB
Duration                         : 54mn 33s
Overall bit rate                 : 1 792 Kbps
Writing application              : VirtualDubMod 1.5.10.2 (build 2540/release)
Writing library                  : VirtualDubMod build 2540/release
Video
ID                               : 0
Format                           : MPEG-4 Visual
Format profile                   : Advanced Simple@L5
Format settings, BVOP            : Yes
Format settings, QPel            : No
Format settings, GMC             : No warppoints
Format settings, Matrix          : Default (H.263)
Muxing mode                      : Packed bitstream
Codec ID                         : XVID
Codec ID/Hint                    : XviD
Duration                         : 54mn 33s
Bit rate                         : 1 591 Kbps
Width                            : 624 pixels
Height                           : 352 pixels
Display aspect ratio             : 16:9
Frame rate                       : 23.976 fps
Color space                      : YUV
Chroma subsampling               : 4:2:0
Bit depth                        : 8 bits
Scan type                        : Progressive
Bits/(Pixel*Frame)               : 0.302
Stream size                      : 621 MiB (89%)
Writing library                  : XviD 63
Audio
ID                               : 1
Format                           : AC-3
Format/Info                      : Audio Coding 3
Mode extension                   : CM (complete main)
Codec ID                         : 2000
Duration                         : 54mn 33s
Bit rate mode                    : Constant
Bit rate                         : 192 Kbps
Channel(s)                       : 2 channels
Channel positions                : Front: L R
Sampling rate                    : 48.0 KHz
Bit depth                        : 16 bits
Stream size                      : 74.9 MiB (11%)
Alignment                        : Split accross interleaves
Interleave, duration             : 42 ms (1.00 video frame)
Interleave, preload duration     : 500 ms
[ CD2 ]
Format                           : AVI
Format/Info                      : Audio Video Interleave
File size                        : 697 MiB
Duration                         : 59mn 2s
Overall bit rate                 : 1 650 Kbps
Writing application              : VirtualDubMod 1.5.10.2 (build 2540/release)
Writing library                  : VirtualDubMod build 2540/release
Video
ID                               : 0
Format                           : MPEG-4 Visual
Format profile                   : Advanced Simple@L5
Format settings, BVOP            : Yes
Format settings, QPel            : No
Format settings, GMC             : No warppoints
Format settings, Matrix          : Default (H.263)
Muxing mode                      : Packed bitstream
Codec ID                         : XVID
Codec ID/Hint                    : XviD
Duration                         : 59mn 2s
Bit rate                         : 1 449 Kbps
Width                            : 624 pixels
Height                           : 352 pixels
Display aspect ratio             : 16:9
Frame rate                       : 23.976 fps
Color space                      : YUV
Chroma subsampling               : 4:2:0
Bit depth                        : 8 bits
Scan type                        : Progressive
Bits/(Pixel*Frame)               : 0.275
Stream size                      : 612 MiB (88%)
Writing library                  : XviD 63
Audio
ID                               : 1
Format                           : AC-3
Format/Info                      : Audio Coding 3
Mode extension                   : CM (complete main)
Codec ID                         : 2000
Duration                         : 58mn 49s
Bit rate mode                    : Constant
Bit rate                         : 192 Kbps
Channel(s)                       : 2 channels
Channel positions                : Front: L R
Sampling rate                    : 48.0 KHz
Bit depth                        : 16 bits
Video delay                      : 7ms
Stream size                      : 80.8 MiB (12%)
Alignment                        : Split accross interleaves
Interleave, duration             : 42 ms (1.00 video frame)
Interleave, preload duration     : 500 ms

Screen : 
http://img718.imageshack.us/img718/889/lordallmencantbedogs201.jpg 
http://img641.imageshack.us/img641/889/lordallmencantbedogs201.jpg 
http://img20.imageshack.us/img20/889/lordallmencantbedogs201.jpg 
http://img109.imageshack.us/img109/889/lordallmencantbedogs201.jpg 
http://img832.imageshack.us/img832/889/lordallmencantbedogs201.jpg